{
	"asset":{
		"generator":"Khronos glTF Blender I/O v3.6.27",
		"version":"2.0"
	},
	"extensionsUsed":[
		"KHR_materials_specular",
		"KHR_materials_ior"
	],
	"scene":0,
	"scenes":[
		{
			"name":"Scene",
			"nodes":[
				0
			]
		}
	],
	"nodes":[
		{
			"mesh":0,
			"name":"Earth",
			"rotation":[
				0.70710688829422,
				0,
				0,
				0.7071066498756409
			],
			"scale":[
				0.009999999776482582,
				0.009999999776482582,
				0.009999999776482582
			]
		}
	],
	"materials":[
		{
			"doubleSided":true,
			"extensions":{
				"KHR_materials_specular":{
					"specularColorFactor":[
						2.371357614441398,
						2.371357614441398,
						2.371357614441398
					]
				},
				"KHR_materials_ior":{
					"ior":1.4500000476837158
				}
			},
			"name":"PICTON BLUE",
			"pbrMetallicRoughness":{
				"baseColorTexture":{
					"index":0
				},
				"roughnessFactor":0.5527864098548889
			}
		},
		{
			"doubleSided":true,
			"extensions":{
				"KHR_materials_specular":{
					"specularColorFactor":[
						2.371357614441398,
						2.371357614441398,
						2.371357614441398
					]
				},
				"KHR_materials_ior":{
					"ior":1.4500000476837158
				}
			},
			"name":"FRESH ONION",
			"pbrMetallicRoughness":{
				"baseColorTexture":{
					"index":1
				},
				"roughnessFactor":0.5527864098548889
			}
		}
	],
	"meshes":[
		{
			"name":"Untitled",
			"primitives":[
				{
					"attributes":{
						"POSITION":0,
						"NORMAL":1,
						"TEXCOORD_0":2,
						"TEXCOORD_1":3
					},
					"indices":4,
					"material":0
				},
				{
					"attributes":{
						"POSITION":5,
						"NORMAL":6,
						"TEXCOORD_0":7,
						"TEXCOORD_1":8
					},
					"indices":9,
					"material":1
				}
			]
		}
	],
	"textures":[
		{
			"sampler":0,
			"source":0
		},
		{
			"sampler":0,
			"source":0
		}
	],
	"images":[
		{
			"bufferView":5,
			"mimeType":"image/png",
			"name":"Uv Earth"
		}
	],
	"accessors":[
		{
			"bufferView":0,
			"componentType":5126,
			"count":8100,
			"max":[
				100.93988037109375,
				100.98818969726562,
				100.99530029296875
			],
			"min":[
				-100.93988037109375,
				-100.98822784423828,
				-101.0042953491211
			],
			"type":"VEC3"
		},
		{
			"bufferView":1,
			"componentType":5126,
			"count":8100,
			"type":"VEC3"
		},
		{
			"bufferView":2,
			"componentType":5126,
			"count":8100,
			"type":"VEC2"
		},
		{
			"bufferView":3,
			"componentType":5126,
			"count":8100,
			"type":"VEC2"
		},
		{
			"bufferView":4,
			"componentType":5123,
			"count":12528,
			"type":"SCALAR"
		},
		{
			"bufferView":6,
			"componentType":5126,
			"count":7361,
			"max":[
				105.15897369384766,
				105.4738998413086,
				104.98860931396484
			],
			"min":[
				-101.0050048828125,
				-103.41889190673828,
				-105.1827621459961
			],
			"type":"VEC3"
		},
		{
			"bufferView":7,
			"componentType":5126,
			"count":7361,
			"type":"VEC3"
		},
		{
			"bufferView":8,
			"componentType":5126,
			"count":7361,
			"type":"VEC2"
		},
		{
			"bufferView":9,
			"componentType":5126,
			"count":7361,
			"type":"VEC2"
		},
		{
			"bufferView":10,
			"componentType":5123,
			"count":10845,
			"type":"SCALAR"
		}
	],
	"bufferViews":[
		{
			"buffer":0,
			"byteLength":97200,
			"byteOffset":0,
			"target":34962
		},
		{
			"buffer":0,
			"byteLength":97200,
			"byteOffset":97200,
			"target":34962
		},
		{
			"buffer":0,
			"byteLength":64800,
			"byteOffset":194400,
			"target":34962
		},
		{
			"buffer":0,
			"byteLength":64800,
			"byteOffset":259200,
			"target":34962
		},
		{
			"buffer":0,
			"byteLength":25056,
			"byteOffset":324000,
			"target":34963
		},
		{
			"buffer":0,
			"byteLength":45507,
			"byteOffset":349056
		},
		{
			"buffer":0,
			"byteLength":88332,
			"byteOffset":394564,
			"target":34962
		},
		{
			"buffer":0,
			"byteLength":88332,
			"byteOffset":482896,
			"target":34962
		},
		{
			"buffer":0,
			"byteLength":58888,
			"byteOffset":571228,
			"target":34962
		},
		{
			"buffer":0,
			"byteLength":58888,
			"byteOffset":630116,
			"target":34962
		},
		{
			"buffer":0,
			"byteLength":21690,
			"byteOffset":689004,
			"target":34963
		}
	],
	"samplers":[
		{
			"magFilter":9729,
			"minFilter":9987
		}
	],
	"buffers":[
		{
			"byteLength":710696,
			"uri":"data:application/octet-stream;base64,"
		}
	]
}
