{
	"asset":{
		"generator":"Khronos glTF Blender I/O v3.6.27",
		"version":"2.0"
	},
	"extensionsUsed":[
		"KHR_materials_specular",
		"KHR_materials_ior"
	],
	"scene":0,
	"scenes":[
		{
			"name":"Scene",
			"nodes":[
				0
			]
		}
	],
	"nodes":[
		{
			"mesh":0,
			"name":"Mars",
			"rotation":[
				0.70710688829422,
				0,
				0,
				0.7071066498756409
			],
			"scale":[
				0.009999999776482582,
				0.009999999776482582,
				0.009999999776482582
			]
		}
	],
	"materials":[
		{
			"doubleSided":true,
			"extensions":{
				"KHR_materials_specular":{
					"specularColorFactor":[
						2.371357614441398,
						2.371357614441398,
						2.371357614441398
					]
				},
				"KHR_materials_ior":{
					"ior":1.4500000476837158
				}
			},
			"name":"M1",
			"pbrMetallicRoughness":{
				"baseColorTexture":{
					"index":0
				},
				"roughnessFactor":0.5527864098548889
			}
		},
		{
			"doubleSided":true,
			"extensions":{
				"KHR_materials_specular":{
					"specularColorFactor":[
						2.371357614441398,
						2.371357614441398,
						2.371357614441398
					]
				},
				"KHR_materials_ior":{
					"ior":1.4500000476837158
				}
			},
			"name":"M2",
			"pbrMetallicRoughness":{
				"baseColorTexture":{
					"index":1
				},
				"roughnessFactor":0.5527864098548889
			}
		}
	],
	"meshes":[
		{
			"name":"Untitled.014",
			"primitives":[
				{
					"attributes":{
						"POSITION":0,
						"NORMAL":1,
						"TEXCOORD_0":2
					},
					"indices":3,
					"material":0
				},
				{
					"attributes":{
						"POSITION":4,
						"NORMAL":5,
						"TEXCOORD_0":6
					},
					"indices":7,
					"material":1
				}
			]
		}
	],
	"textures":[
		{
			"sampler":0,
			"source":0
		},
		{
			"sampler":0,
			"source":0
		}
	],
	"images":[
		{
			"bufferView":4,
			"mimeType":"image/png",
			"name":"UV Mars"
		}
	],
	"accessors":[
		{
			"bufferView":0,
			"componentType":5126,
			"count":5301,
			"max":[
				100.93988037109375,
				100.98818969726562,
				100.99530029296875
			],
			"min":[
				-100.93988037109375,
				-100.88553619384766,
				-101.0042953491211
			],
			"type":"VEC3"
		},
		{
			"bufferView":1,
			"componentType":5126,
			"count":5301,
			"type":"VEC3"
		},
		{
			"bufferView":2,
			"componentType":5126,
			"count":5301,
			"type":"VEC2"
		},
		{
			"bufferView":3,
			"componentType":5123,
			"count":5865,
			"type":"SCALAR"
		},
		{
			"bufferView":5,
			"componentType":5126,
			"count":4259,
			"max":[
				102.99852752685547,
				102.37694549560547,
				102.01262664794922
			],
			"min":[
				-103.5254898071289,
				-103.78751373291016,
				-101.33416748046875
			],
			"type":"VEC3"
		},
		{
			"bufferView":6,
			"componentType":5126,
			"count":4259,
			"type":"VEC3"
		},
		{
			"bufferView":7,
			"componentType":5126,
			"count":4259,
			"type":"VEC2"
		},
		{
			"bufferView":8,
			"componentType":5123,
			"count":5469,
			"type":"SCALAR"
		}
	],
	"bufferViews":[
		{
			"buffer":0,
			"byteLength":63612,
			"byteOffset":0,
			"target":34962
		},
		{
			"buffer":0,
			"byteLength":63612,
			"byteOffset":63612,
			"target":34962
		},
		{
			"buffer":0,
			"byteLength":42408,
			"byteOffset":127224,
			"target":34962
		},
		{
			"buffer":0,
			"byteLength":11730,
			"byteOffset":169632,
			"target":34963
		},
		{
			"buffer":0,
			"byteLength":52308,
			"byteOffset":181364
		},
		{
			"buffer":0,
			"byteLength":51108,
			"byteOffset":233672,
			"target":34962
		},
		{
			"buffer":0,
			"byteLength":51108,
			"byteOffset":284780,
			"target":34962
		},
		{
			"buffer":0,
			"byteLength":34072,
			"byteOffset":335888,
			"target":34962
		},
		{
			"buffer":0,
			"byteLength":10938,
			"byteOffset":369960,
			"target":34963
		}
	],
	"samplers":[
		{
			"magFilter":9729,
			"minFilter":9987
		}
	],
	"buffers":[
		{
			"byteLength":380900,
			"uri":"data:application/octet-stream;base64,"
		}
	]
}
