{
	"asset":{
		"generator":"Khronos glTF Blender I/O v3.6.27",
		"version":"2.0"
	},
	"extensionsUsed":[
		"KHR_materials_specular",
		"KHR_materials_ior"
	],
	"scene":0,
	"scenes":[
		{
			"name":"Scene",
			"nodes":[
				0
			]
		}
	],
	"nodes":[
		{
			"mesh":0,
			"name":"Mercury",
			"rotation":[
				0.70710688829422,
				0,
				0,
				0.7071066498756409
			],
			"scale":[
				0.009999999776482582,
				0.009999999776482582,
				0.009999999776482582
			]
		}
	],
	"materials":[
		{
			"doubleSided":true,
			"extensions":{
				"KHR_materials_specular":{
					"specularColorFactor":[
						2.371357614441398,
						2.371357614441398,
						2.371357614441398
					]
				},
				"KHR_materials_ior":{
					"ior":1.4500000476837158
				}
			},
			"name":"BrownD",
			"pbrMetallicRoughness":{
				"baseColorTexture":{
					"index":0
				},
				"roughnessFactor":0.5527864098548889
			}
		},
		{
			"doubleSided":true,
			"extensions":{
				"KHR_materials_specular":{
					"specularColorFactor":[
						2.371357614441398,
						2.371357614441398,
						2.371357614441398
					]
				},
				"KHR_materials_ior":{
					"ior":1.4500000476837158
				}
			},
			"name":"Brown",
			"pbrMetallicRoughness":{
				"baseColorTexture":{
					"index":1
				},
				"roughnessFactor":0.5527864098548889
			}
		}
	],
	"meshes":[
		{
			"name":"Untitled.007",
			"primitives":[
				{
					"attributes":{
						"POSITION":0,
						"NORMAL":1,
						"TEXCOORD_0":2
					},
					"indices":3,
					"material":0
				},
				{
					"attributes":{
						"POSITION":4,
						"NORMAL":5,
						"TEXCOORD_0":6
					},
					"indices":7,
					"material":1
				}
			]
		}
	],
	"textures":[
		{
			"sampler":0,
			"source":0
		},
		{
			"sampler":0,
			"source":0
		}
	],
	"images":[
		{
			"bufferView":4,
			"mimeType":"image/png",
			"name":"UV Mercury"
		}
	],
	"accessors":[
		{
			"bufferView":0,
			"componentType":5126,
			"count":3823,
			"max":[
				100.95106506347656,
				102.34696960449219,
				105.17438507080078
			],
			"min":[
				-102.97982025146484,
				-103.96001434326172,
				-103.91549682617188
			],
			"type":"VEC3"
		},
		{
			"bufferView":1,
			"componentType":5126,
			"count":3823,
			"type":"VEC3"
		},
		{
			"bufferView":2,
			"componentType":5126,
			"count":3823,
			"type":"VEC2"
		},
		{
			"bufferView":3,
			"componentType":5123,
			"count":4755,
			"type":"SCALAR"
		},
		{
			"bufferView":5,
			"componentType":5126,
			"count":5117,
			"max":[
				100.93988037109375,
				100.98818969726562,
				100.62549591064453
			],
			"min":[
				-100.93988037109375,
				-100.98822784423828,
				-101.0042953491211
			],
			"type":"VEC3"
		},
		{
			"bufferView":6,
			"componentType":5126,
			"count":5117,
			"type":"VEC3"
		},
		{
			"bufferView":7,
			"componentType":5126,
			"count":5117,
			"type":"VEC2"
		},
		{
			"bufferView":8,
			"componentType":5123,
			"count":5667,
			"type":"SCALAR"
		}
	],
	"bufferViews":[
		{
			"buffer":0,
			"byteLength":45876,
			"byteOffset":0,
			"target":34962
		},
		{
			"buffer":0,
			"byteLength":45876,
			"byteOffset":45876,
			"target":34962
		},
		{
			"buffer":0,
			"byteLength":30584,
			"byteOffset":91752,
			"target":34962
		},
		{
			"buffer":0,
			"byteLength":9510,
			"byteOffset":122336,
			"target":34963
		},
		{
			"buffer":0,
			"byteLength":46168,
			"byteOffset":131848
		},
		{
			"buffer":0,
			"byteLength":61404,
			"byteOffset":178016,
			"target":34962
		},
		{
			"buffer":0,
			"byteLength":61404,
			"byteOffset":239420,
			"target":34962
		},
		{
			"buffer":0,
			"byteLength":40936,
			"byteOffset":300824,
			"target":34962
		},
		{
			"buffer":0,
			"byteLength":11334,
			"byteOffset":341760,
			"target":34963
		}
	],
	"samplers":[
		{
			"magFilter":9729,
			"minFilter":9987
		}
	],
	"buffers":[
		{
			"byteLength":353096,
			"uri":"data:application/octet-stream;base64,"
		}
	]
}
