{
	"asset":{
		"generator":"Khronos glTF Blender I/O v3.6.27",
		"version":"2.0"
	},
	"extensionsUsed":[
		"KHR_materials_specular",
		"KHR_materials_ior"
	],
	"scene":0,
	"scenes":[
		{
			"name":"Scene",
			"nodes":[
				0
			]
		}
	],
	"nodes":[
		{
			"mesh":0,
			"name":"Moon",
			"rotation":[
				0.70710688829422,
				0,
				0,
				0.7071066498756409
			],
			"scale":[
				0.009999999776482582,
				0.009999999776482582,
				0.009999999776482582
			]
		}
	],
	"materials":[
		{
			"doubleSided":true,
			"extensions":{
				"KHR_materials_specular":{
					"specularColorFactor":[
						2.371357614441398,
						2.371357614441398,
						2.371357614441398
					]
				},
				"KHR_materials_ior":{
					"ior":1.4500000476837158
				}
			},
			"name":"Moon",
			"pbrMetallicRoughness":{
				"baseColorTexture":{
					"index":0
				},
				"roughnessFactor":0.5527864098548889
			}
		}
	],
	"meshes":[
		{
			"name":"Untitled.011",
			"primitives":[
				{
					"attributes":{
						"POSITION":0,
						"NORMAL":1,
						"TEXCOORD_0":2
					},
					"indices":3,
					"material":0
				}
			]
		}
	],
	"textures":[
		{
			"sampler":0,
			"source":0
		}
	],
	"images":[
		{
			"bufferView":4,
			"mimeType":"image/png",
			"name":"UV Moon"
		}
	],
	"accessors":[
		{
			"bufferView":0,
			"componentType":5126,
			"count":7820,
			"max":[
				100.93988037109375,
				100.39205932617188,
				101.34363555908203
			],
			"min":[
				-101.19652557373047,
				-100.98822784423828,
				-101.0042953491211
			],
			"type":"VEC3"
		},
		{
			"bufferView":1,
			"componentType":5126,
			"count":7820,
			"type":"VEC3"
		},
		{
			"bufferView":2,
			"componentType":5126,
			"count":7820,
			"type":"VEC2"
		},
		{
			"bufferView":3,
			"componentType":5123,
			"count":8520,
			"type":"SCALAR"
		}
	],
	"bufferViews":[
		{
			"buffer":0,
			"byteLength":93840,
			"byteOffset":0,
			"target":34962
		},
		{
			"buffer":0,
			"byteLength":93840,
			"byteOffset":93840,
			"target":34962
		},
		{
			"buffer":0,
			"byteLength":62560,
			"byteOffset":187680,
			"target":34962
		},
		{
			"buffer":0,
			"byteLength":17040,
			"byteOffset":250240,
			"target":34963
		},
		{
			"buffer":0,
			"byteLength":29413,
			"byteOffset":267280
		}
	],
	"samplers":[
		{
			"magFilter":9729,
			"minFilter":9987
		}
	],
	"buffers":[
		{
			"byteLength":296696,
			"uri":"data:application/octet-stream;base64,"
		}
	]
}
