{
	"asset":{
		"generator":"Khronos glTF Blender I/O v3.6.27",
		"version":"2.0"
	},
	"extensionsUsed":[
		"KHR_materials_specular",
		"KHR_materials_ior"
	],
	"scene":0,
	"scenes":[
		{
			"name":"Scene",
			"nodes":[
				0
			]
		}
	],
	"nodes":[
		{
			"mesh":0,
			"name":"Neptun",
			"rotation":[
				0.70710688829422,
				0,
				0,
				0.7071066498756409
			],
			"scale":[
				0.009999999776482582,
				0.009999999776482582,
				0.009999999776482582
			]
		}
	],
	"materials":[
		{
			"doubleSided":true,
			"extensions":{
				"KHR_materials_specular":{
					"specularColorFactor":[
						2.371357614441398,
						2.371357614441398,
						2.371357614441398
					]
				},
				"KHR_materials_ior":{
					"ior":1.4500000476837158
				}
			},
			"name":"Neptun",
			"pbrMetallicRoughness":{
				"baseColorTexture":{
					"index":0
				},
				"roughnessFactor":0.5527864098548889
			}
		}
	],
	"meshes":[
		{
			"name":"Untitled.012",
			"primitives":[
				{
					"attributes":{
						"POSITION":0,
						"NORMAL":1,
						"TEXCOORD_0":2
					},
					"indices":3,
					"material":0
				}
			]
		}
	],
	"textures":[
		{
			"sampler":0,
			"source":0
		}
	],
	"images":[
		{
			"bufferView":4,
			"mimeType":"image/png",
			"name":"UV Neptun"
		}
	],
	"accessors":[
		{
			"bufferView":0,
			"componentType":5126,
			"count":8100,
			"max":[
				100.83673095703125,
				100.98818969726562,
				100.63285064697266
			],
			"min":[
				-100.81731414794922,
				-100.42371368408203,
				-97.56941986083984
			],
			"type":"VEC3"
		},
		{
			"bufferView":1,
			"componentType":5126,
			"count":8100,
			"type":"VEC3"
		},
		{
			"bufferView":2,
			"componentType":5126,
			"count":8100,
			"type":"VEC2"
		},
		{
			"bufferView":3,
			"componentType":5123,
			"count":8520,
			"type":"SCALAR"
		}
	],
	"bufferViews":[
		{
			"buffer":0,
			"byteLength":97200,
			"byteOffset":0,
			"target":34962
		},
		{
			"buffer":0,
			"byteLength":97200,
			"byteOffset":97200,
			"target":34962
		},
		{
			"buffer":0,
			"byteLength":64800,
			"byteOffset":194400,
			"target":34962
		},
		{
			"buffer":0,
			"byteLength":17040,
			"byteOffset":259200,
			"target":34963
		},
		{
			"buffer":0,
			"byteLength":136861,
			"byteOffset":276240
		}
	],
	"samplers":[
		{
			"magFilter":9729,
			"minFilter":9987
		}
	],
	"buffers":[
		{
			"byteLength":413104,
			"uri":"data:application/octet-stream;base64,"
		}
	]
}
