{
	"asset":{
		"generator":"Khronos glTF Blender I/O v3.6.27",
		"version":"2.0"
	},
	"extensionsUsed":[
		"KHR_materials_specular",
		"KHR_materials_ior"
	],
	"scene":0,
	"scenes":[
		{
			"name":"Scene",
			"nodes":[
				0
			]
		}
	],
	"nodes":[
		{
			"mesh":0,
			"name":"Pluto",
			"rotation":[
				0.70710688829422,
				0,
				0,
				0.7071066498756409
			],
			"scale":[
				0.009999999776482582,
				0.009999999776482582,
				0.009999999776482582
			]
		}
	],
	"materials":[
		{
			"doubleSided":true,
			"extensions":{
				"KHR_materials_specular":{
					"specularColorFactor":[
						2.371357614441398,
						2.371357614441398,
						2.371357614441398
					]
				},
				"KHR_materials_ior":{
					"ior":1.4500000476837158
				}
			},
			"name":"BrownD2",
			"pbrMetallicRoughness":{
				"baseColorTexture":{
					"index":0
				},
				"roughnessFactor":0.5527864098548889
			}
		},
		{
			"doubleSided":true,
			"extensions":{
				"KHR_materials_specular":{
					"specularColorFactor":[
						2.371357614441398,
						2.371357614441398,
						2.371357614441398
					]
				},
				"KHR_materials_ior":{
					"ior":1.4500000476837158
				}
			},
			"name":"BrownD",
			"pbrMetallicRoughness":{
				"baseColorTexture":{
					"index":1
				},
				"roughnessFactor":0.5527864098548889
			}
		}
	],
	"meshes":[
		{
			"name":"Untitled.013",
			"primitives":[
				{
					"attributes":{
						"POSITION":0,
						"NORMAL":1,
						"TEXCOORD_0":2
					},
					"indices":3,
					"material":0
				},
				{
					"attributes":{
						"POSITION":4,
						"NORMAL":5,
						"TEXCOORD_0":6
					},
					"indices":7,
					"material":1
				}
			]
		}
	],
	"textures":[
		{
			"sampler":0,
			"source":0
		},
		{
			"sampler":0,
			"source":0
		}
	],
	"images":[
		{
			"bufferView":4,
			"mimeType":"image/png",
			"name":"UV Pluto"
		}
	],
	"accessors":[
		{
			"bufferView":0,
			"componentType":5126,
			"count":3619,
			"max":[
				99.6520767211914,
				100.98818969726562,
				85.35002899169922
			],
			"min":[
				-100.93988037109375,
				-100.98822784423828,
				-87.15583801269531
			],
			"type":"VEC3"
		},
		{
			"bufferView":1,
			"componentType":5126,
			"count":3619,
			"type":"VEC3"
		},
		{
			"bufferView":2,
			"componentType":5126,
			"count":3619,
			"type":"VEC2"
		},
		{
			"bufferView":3,
			"componentType":5123,
			"count":4353,
			"type":"SCALAR"
		},
		{
			"bufferView":5,
			"componentType":5126,
			"count":4959,
			"max":[
				100.93988037109375,
				100.98818969726562,
				100.99530029296875
			],
			"min":[
				-100.93988037109375,
				-100.98822784423828,
				-101.0042953491211
			],
			"type":"VEC3"
		},
		{
			"bufferView":6,
			"componentType":5126,
			"count":4959,
			"type":"VEC3"
		},
		{
			"bufferView":7,
			"componentType":5126,
			"count":4959,
			"type":"VEC2"
		},
		{
			"bufferView":8,
			"componentType":5123,
			"count":5517,
			"type":"SCALAR"
		}
	],
	"bufferViews":[
		{
			"buffer":0,
			"byteLength":43428,
			"byteOffset":0,
			"target":34962
		},
		{
			"buffer":0,
			"byteLength":43428,
			"byteOffset":43428,
			"target":34962
		},
		{
			"buffer":0,
			"byteLength":28952,
			"byteOffset":86856,
			"target":34962
		},
		{
			"buffer":0,
			"byteLength":8706,
			"byteOffset":115808,
			"target":34963
		},
		{
			"buffer":0,
			"byteLength":41936,
			"byteOffset":124516
		},
		{
			"buffer":0,
			"byteLength":59508,
			"byteOffset":166452,
			"target":34962
		},
		{
			"buffer":0,
			"byteLength":59508,
			"byteOffset":225960,
			"target":34962
		},
		{
			"buffer":0,
			"byteLength":39672,
			"byteOffset":285468,
			"target":34962
		},
		{
			"buffer":0,
			"byteLength":11034,
			"byteOffset":325140,
			"target":34963
		}
	],
	"samplers":[
		{
			"magFilter":9729,
			"minFilter":9987
		}
	],
	"buffers":[
		{
			"byteLength":336176,
			"uri":"data:application/octet-stream;base64,"
		}
	]
}
