{
	"asset":{
		"generator":"Khronos glTF Blender I/O v3.6.27",
		"version":"2.0"
	},
	"extensionsUsed":[
		"KHR_materials_specular",
		"KHR_materials_ior"
	],
	"scene":0,
	"scenes":[
		{
			"name":"Scene",
			"nodes":[
				0
			]
		}
	],
	"nodes":[
		{
			"mesh":0,
			"name":"Saturn.001",
			"rotation":[
				0.70710688829422,
				0,
				0,
				0.7071066498756409
			],
			"scale":[
				0.009999999776482582,
				0.009999999776482582,
				0.009999999776482582
			]
		}
	],
	"materials":[
		{
			"doubleSided":true,
			"extensions":{
				"KHR_materials_specular":{
					"specularColorFactor":[
						2.371357614441398,
						2.371357614441398,
						2.371357614441398
					]
				},
				"KHR_materials_ior":{
					"ior":1.4500000476837158
				}
			},
			"name":"Brown",
			"pbrMetallicRoughness":{
				"baseColorTexture":{
					"index":0
				},
				"roughnessFactor":0.5527864098548889
			}
		},
		{
			"doubleSided":true,
			"extensions":{
				"KHR_materials_specular":{
					"specularColorFactor":[
						2.371357614441398,
						2.371357614441398,
						2.371357614441398
					]
				},
				"KHR_materials_ior":{
					"ior":1.4500000476837158
				}
			},
			"name":"PICTON BLUE",
			"pbrMetallicRoughness":{
				"baseColorTexture":{
					"index":1
				},
				"roughnessFactor":0.5527864098548889
			}
		},
		{
			"doubleSided":true,
			"extensions":{
				"KHR_materials_specular":{
					"specularColorFactor":[
						2.371357614441398,
						2.371357614441398,
						2.371357614441398
					]
				},
				"KHR_materials_ior":{
					"ior":1.4500000476837158
				}
			},
			"name":"Purple",
			"pbrMetallicRoughness":{
				"baseColorTexture":{
					"index":2
				},
				"roughnessFactor":0.5527864098548889
			}
		}
	],
	"meshes":[
		{
			"name":"Untitled.006",
			"primitives":[
				{
					"attributes":{
						"POSITION":0,
						"NORMAL":1,
						"TEXCOORD_0":2
					},
					"indices":3,
					"material":0
				},
				{
					"attributes":{
						"POSITION":4,
						"NORMAL":5,
						"TEXCOORD_0":6
					},
					"indices":7,
					"material":1
				},
				{
					"attributes":{
						"POSITION":8,
						"NORMAL":9,
						"TEXCOORD_0":10
					},
					"indices":11,
					"material":2
				}
			]
		}
	],
	"textures":[
		{
			"sampler":0,
			"source":0
		},
		{
			"sampler":0,
			"source":0
		},
		{
			"sampler":0,
			"source":0
		}
	],
	"images":[
		{
			"bufferView":4,
			"mimeType":"image/png",
			"name":"UV Uranus"
		}
	],
	"accessors":[
		{
			"bufferView":0,
			"componentType":5126,
			"count":3893,
			"max":[
				203.05006408691406,
				203.05010986328125,
				100.63285064697266
			],
			"min":[
				-203.0500946044922,
				-203.05006408691406,
				-5.926425933837891
			],
			"type":"VEC3"
		},
		{
			"bufferView":1,
			"componentType":5126,
			"count":3893,
			"type":"VEC3"
		},
		{
			"bufferView":2,
			"componentType":5126,
			"count":3893,
			"type":"VEC2"
		},
		{
			"bufferView":3,
			"componentType":5123,
			"count":5001,
			"type":"SCALAR"
		},
		{
			"bufferView":5,
			"componentType":5126,
			"count":2820,
			"max":[
				163.49697875976562,
				163.49700927734375,
				3.3021469116210938
			],
			"min":[
				-163.49697875976562,
				-163.49697875976562,
				-97.56941986083984
			],
			"type":"VEC3"
		},
		{
			"bufferView":6,
			"componentType":5126,
			"count":2820,
			"type":"VEC3"
		},
		{
			"bufferView":7,
			"componentType":5126,
			"count":2820,
			"type":"VEC2"
		},
		{
			"bufferView":8,
			"componentType":5123,
			"count":3414,
			"type":"SCALAR"
		},
		{
			"bufferView":9,
			"componentType":5126,
			"count":2639,
			"max":[
				100.83673095703125,
				100.98818969726562,
				30.39848518371582
			],
			"min":[
				-100.81731414794922,
				-100.42371368408203,
				-52.505741119384766
			],
			"type":"VEC3"
		},
		{
			"bufferView":10,
			"componentType":5126,
			"count":2639,
			"type":"VEC3"
		},
		{
			"bufferView":11,
			"componentType":5126,
			"count":2639,
			"type":"VEC2"
		},
		{
			"bufferView":12,
			"componentType":5123,
			"count":2793,
			"type":"SCALAR"
		}
	],
	"bufferViews":[
		{
			"buffer":0,
			"byteLength":46716,
			"byteOffset":0,
			"target":34962
		},
		{
			"buffer":0,
			"byteLength":46716,
			"byteOffset":46716,
			"target":34962
		},
		{
			"buffer":0,
			"byteLength":31144,
			"byteOffset":93432,
			"target":34962
		},
		{
			"buffer":0,
			"byteLength":10002,
			"byteOffset":124576,
			"target":34963
		},
		{
			"buffer":0,
			"byteLength":202898,
			"byteOffset":134580
		},
		{
			"buffer":0,
			"byteLength":33840,
			"byteOffset":337480,
			"target":34962
		},
		{
			"buffer":0,
			"byteLength":33840,
			"byteOffset":371320,
			"target":34962
		},
		{
			"buffer":0,
			"byteLength":22560,
			"byteOffset":405160,
			"target":34962
		},
		{
			"buffer":0,
			"byteLength":6828,
			"byteOffset":427720,
			"target":34963
		},
		{
			"buffer":0,
			"byteLength":31668,
			"byteOffset":434548,
			"target":34962
		},
		{
			"buffer":0,
			"byteLength":31668,
			"byteOffset":466216,
			"target":34962
		},
		{
			"buffer":0,
			"byteLength":21112,
			"byteOffset":497884,
			"target":34962
		},
		{
			"buffer":0,
			"byteLength":5586,
			"byteOffset":518996,
			"target":34963
		}
	],
	"samplers":[
		{
			"magFilter":9729,
			"minFilter":9987
		}
	],
	"buffers":[
		{
			"byteLength":524584,
			"uri":"data:application/octet-stream;base64,"
		}
	]
}
