{
	"asset":{
		"generator":"Khronos glTF Blender I/O v3.6.27",
		"version":"2.0"
	},
	"extensionsUsed":[
		"KHR_materials_specular",
		"KHR_materials_ior"
	],
	"scene":0,
	"scenes":[
		{
			"name":"Scene",
			"nodes":[
				0
			]
		}
	],
	"nodes":[
		{
			"mesh":0,
			"name":"Venus",
			"rotation":[
				0.70710688829422,
				0,
				0,
				0.7071066498756409
			],
			"scale":[
				0.009999999776482582,
				0.009999999776482582,
				0.009999999776482582
			]
		}
	],
	"materials":[
		{
			"doubleSided":true,
			"extensions":{
				"KHR_materials_specular":{
					"specularColorFactor":[
						2.371357614441398,
						2.371357614441398,
						2.371357614441398
					]
				},
				"KHR_materials_ior":{
					"ior":1.4500000476837158
				}
			},
			"name":"Venus.001",
			"pbrMetallicRoughness":{
				"baseColorTexture":{
					"index":0
				},
				"roughnessFactor":0.5527864098548889
			}
		}
	],
	"meshes":[
		{
			"name":"Untitled.023",
			"primitives":[
				{
					"attributes":{
						"POSITION":0,
						"NORMAL":1,
						"TEXCOORD_0":2
					},
					"indices":3,
					"material":0
				}
			]
		}
	],
	"textures":[
		{
			"sampler":0,
			"source":0
		}
	],
	"images":[
		{
			"bufferView":4,
			"mimeType":"image/png",
			"name":"UV Venus"
		}
	],
	"accessors":[
		{
			"bufferView":0,
			"componentType":5126,
			"count":8128,
			"max":[
				105.97493743896484,
				106.48983764648438,
				106.6667251586914
			],
			"min":[
				-106.63324737548828,
				-106.6752700805664,
				-106.68926239013672
			],
			"type":"VEC3"
		},
		{
			"bufferView":1,
			"componentType":5126,
			"count":8128,
			"type":"VEC3"
		},
		{
			"bufferView":2,
			"componentType":5126,
			"count":8128,
			"type":"VEC2"
		},
		{
			"bufferView":3,
			"componentType":5123,
			"count":8520,
			"type":"SCALAR"
		}
	],
	"bufferViews":[
		{
			"buffer":0,
			"byteLength":97536,
			"byteOffset":0,
			"target":34962
		},
		{
			"buffer":0,
			"byteLength":97536,
			"byteOffset":97536,
			"target":34962
		},
		{
			"buffer":0,
			"byteLength":65024,
			"byteOffset":195072,
			"target":34962
		},
		{
			"buffer":0,
			"byteLength":17040,
			"byteOffset":260096,
			"target":34963
		},
		{
			"buffer":0,
			"byteLength":149070,
			"byteOffset":277136
		}
	],
	"samplers":[
		{
			"magFilter":9729,
			"minFilter":9987
		}
	],
	"buffers":[
		{
			"byteLength":426208,
			"uri":"data:application/octet-stream;base64,"
		}
	]
}
